<svg width="47" height="103" viewBox="0 0 47 103" fill="none" xmlns="http://www.w3.org/2000/svg">
<path d="M18.9994 0.912031C17.3045 3.12294 15.6096 5.33384 13.6045 7.96312C14.6008 7.98826 15.2714 8.04021 16.0251 7.94245C31.6843 6.47496 42.766 15.0626 45.9263 31.0522C47.8952 41.3543 45.9965 51.9032 42.1207 62.7935C37.7613 74.9736 30.2364 84.8785 20.8576 93.3646C16.0244 97.7267 10.6439 100.277 5.05029 101.951C3.58086 102.358 2.15302 102.69 0.486111 102.613C1.26593 102.049 2.06828 101.304 2.86364 101.131C22.3492 96.1347 40.7075 70.2311 43.1797 46.0638C44.1703 36.5895 42.5027 28.2627 37.9082 21.4267C32.4944 13.4082 21.4103 9.99914 11.443 13.3909C13.4232 16.1208 17.6061 16.705 17.6678 21.6284C13.8699 19.5125 10.3942 17.6558 7.02072 15.7549C5.9101 15.0963 5.41641 13.887 6.46835 12.6933C10.0176 8.54408 13.6465 4.53116 17.2944 0.623814C17.5214 0.355132 18.1504 0.481921 18.5784 0.410978C18.7413 0.397572 18.9007 0.670163 18.9994 0.912031Z" fill="#65CE00"/>
</svg>
