<svg width="264" height="126" viewBox="0 0 264 126" fill="none" xmlns="http://www.w3.org/2000/svg">
<path d="M261.261 77.6432L259.898 77.3834L261.261 77.6432ZM97.2404 121.869L97.3851 120.489L97.2404 121.869ZM160.092 3.47823C160.858 3.49206 161.49 2.88209 161.504 2.11583C161.518 1.34956 160.908 0.71717 160.142 0.703337L160.092 3.47823ZM88.4153 26.4822C108.694 22.1508 154.881 19.1606 194.425 25.2942C214.209 28.3629 232.153 33.6905 244.355 42.1407C250.44 46.3544 255.046 51.3101 257.773 57.102C260.492 62.8787 261.385 69.5811 259.898 77.3834L262.624 77.9031C264.21 69.5814 263.276 62.2767 260.284 55.92C257.299 49.5785 252.311 44.2744 245.935 39.859C233.216 31.0509 214.775 25.6423 194.85 22.5517C154.976 16.3667 108.448 19.3654 87.8356 23.7681L88.4153 26.4822ZM259.898 77.3834C258.99 82.1424 255.105 87.9453 247.875 93.8412C240.681 99.7076 230.316 105.548 216.751 110.42C189.63 120.161 149.836 125.988 97.3851 120.489L97.0958 123.249C149.88 128.783 190.105 122.94 217.69 113.032C231.479 108.079 242.138 102.1 249.629 95.992C257.083 89.9136 261.54 83.5875 262.624 77.9031L259.898 77.3834ZM97.3851 120.489C64.6653 117.059 39.6563 107.677 23.6944 95.7072C7.72202 83.7296 0.995097 69.3449 4.14657 55.7395C7.31637 42.0549 20.6099 28.5152 46.1711 18.6059C71.6863 8.71429 109.16 2.55878 160.092 3.47823L160.142 0.703337C109 -0.219912 71.1344 5.95167 45.1679 16.0182C19.2472 26.0669 4.91659 40.1163 1.44282 55.1132C-2.04928 70.1891 5.56088 85.578 22.0294 97.9276C38.5084 110.285 64.044 119.784 97.0958 123.249L97.3851 120.489Z" fill="#65CE00"/>
</svg>
