<svg width="59" height="58" viewBox="0 0 59 58" fill="none" xmlns="http://www.w3.org/2000/svg">
<path d="M18.5836 13.1531C18.4912 12.2394 19.5759 11.6947 20.2535 12.3145L27.2041 18.6722C27.4194 18.8691 27.71 18.9622 27.9996 18.927L37.4787 17.7757C38.41 17.6625 38.9704 18.7785 38.3235 19.4579L31.7389 26.3733C31.5377 26.5846 31.4388 26.8732 31.4682 27.1635L32.4165 36.5354C32.5089 37.449 31.4242 37.9937 30.7466 37.3739L23.796 31.0163C23.5807 30.8193 23.2901 30.7263 23.0005 30.7614L13.5214 31.9128C12.5901 32.0259 12.0297 30.9099 12.6766 30.2305L19.2612 23.3152C19.4624 23.1039 19.5613 22.8152 19.5319 22.5249L18.5836 13.1531Z" fill="#65CE00"/>
<path d="M19.4998 37.2562C19.4134 36.3479 20.4888 35.8079 21.1657 36.4196L24.7252 39.6361C24.9416 39.8316 25.2325 39.923 25.5219 39.8861L30.3122 39.2766C31.2485 39.1575 31.8134 40.2825 31.1587 40.9623L27.8089 44.4405C27.6066 44.6506 27.5061 44.9385 27.5337 45.2289L27.9878 50.0048C28.0742 50.9131 26.9988 51.4531 26.3218 50.8414L22.7624 47.6249C22.546 47.4293 22.255 47.338 21.9657 47.3748L17.1753 47.9843C16.2391 48.1035 15.6741 46.9785 16.3288 46.2987L19.6786 42.8204C19.881 42.6104 19.9815 42.3224 19.9539 42.0321L19.4998 37.2562Z" fill="#65CE00"/>
<path d="M40.044 24.6853C39.9594 23.7786 41.0321 23.2399 41.7088 23.8493L44.7058 26.5478C44.9225 26.743 45.2136 26.8338 45.5028 26.7965L49.5056 26.2805C50.4433 26.1596 51.0096 27.2872 50.3526 27.9671L47.5482 30.8695C47.3455 31.0792 47.2445 31.3669 47.2716 31.6572L47.6462 35.6727C47.7308 36.5794 46.6581 37.1181 45.9814 36.5087L42.9844 33.8102C42.7677 33.615 42.4766 33.5242 42.1874 33.5615L38.1846 34.0775C37.2469 34.1984 36.6806 33.0708 37.3376 32.3909L40.142 29.4885C40.3447 29.2788 40.4457 28.9911 40.4186 28.7008L40.044 24.6853Z" fill="#65CE00"/>
</svg>
