<svg width="18" height="19" viewBox="0 0 18 19" fill="none" xmlns="http://www.w3.org/2000/svg">
<g clip-path="url(#clip0_1487_14186)">
<path fill-rule="evenodd" clip-rule="evenodd" d="M12.375 10.0625H9.5625V12.875C9.5625 13.1844 9.31106 13.4375 9 13.4375C8.68894 13.4375 8.4375 13.1844 8.4375 12.875V10.0625H5.625C5.31394 10.0625 5.0625 9.80937 5.0625 9.5C5.0625 9.19063 5.31394 8.9375 5.625 8.9375H8.4375V6.125C8.4375 5.81563 8.68894 5.5625 9 5.5625C9.31106 5.5625 9.5625 5.81563 9.5625 6.125V8.9375H12.375C12.6861 8.9375 12.9375 9.19063 12.9375 9.5C12.9375 9.80937 12.6861 10.0625 12.375 10.0625ZM9 0.5C4.02919 0.5 0 4.5275 0 9.5C0 14.4725 4.02919 18.5 9 18.5C13.9708 18.5 18 14.4725 18 9.5C18 4.5275 13.9708 0.5 9 0.5Z" fill="#5A5A5A"/>
</g>
<defs>
<clipPath id="clip0_1487_14186">
<rect width="18" height="18" fill="white" transform="translate(0 0.5)"/>
</clipPath>
</defs>
</svg>
