<svg width="1126" height="47" viewBox="0 0 1126 47" fill="none" xmlns="http://www.w3.org/2000/svg">
<path d="M1056.81 47C1055.34 47 1051.79 46.4855 1049.71 41.5116L1042.74 25.0465C1041.76 22.7025 1038.27 20.53 1035.64 20.53L998.938 20.6444C996.43 20.6444 0.5 16.3566 0.5 13.9554C0.5 11.6114 996.369 12.0688 998.938 12.0688L1035.64 11.9545H1035.7C1042.13 11.9545 1048.98 16.2994 1051.37 21.9021L1056.93 35.0513L1069.53 5.20832C1071.43 0.749018 1074.8 0.120162 1076.2 0.00582116C1077.61 -0.0513494 1081.04 0.234437 1083.42 4.46506L1089.78 15.7277C1090.89 17.6715 1094.19 19.5581 1096.57 19.5581H1121.41C1123.92 19.5581 1126 21.5019 1126 23.8459C1126 26.1899 1123.92 28.1337 1121.41 28.1337H1096.57C1090.76 28.1337 1084.4 24.532 1081.71 19.7297L1076.94 11.2684L1064.09 41.5116C1061.83 46.4283 1058.22 47 1056.81 47Z" fill="url(#paint0_linear_375_3864)"/>
<defs>
<linearGradient id="paint0_linear_375_3864" x1="994.35" y1="16.8186" x2="1127.19" y2="22.6641" gradientUnits="userSpaceOnUse">
<stop stop-color="white"/>
<stop offset="1" stop-color="#005DBA"/>
</linearGradient>
</defs>
</svg>
