<svg width="148" height="43" viewBox="0 0 148 43" fill="none" xmlns="http://www.w3.org/2000/svg">
<path d="M3.20687 19.6651C3.20687 22.5083 2.13211 23.7373 0 23.7373V25.3516C3.36664 25.159 4.80741 23.2788 4.80741 19.3533V10.4629H3.20397V19.6651H3.20687Z" fill="white"/>
<path d="M68.4568 6.67773H66.8301V8.72607H68.4568V6.67773Z" fill="white"/>
<path d="M65.4568 6.67773H63.8301V8.72607H65.4568V6.67773Z" fill="white"/>
<path d="M71.5014 10.4637V16.4161C71.5014 18.9688 70.9292 19.7179 69.2125 19.7179H66.4646C66.7608 19.0667 66.9003 18.1984 66.9003 17.1651V10.4667H65.2968V16.4191C65.2968 18.9719 64.8176 19.7209 63.3506 19.7209H60.35V19.6231C60.6027 18.9719 60.7392 18.1526 60.7392 17.1651V10.4667H59.1358V16.6362C58.976 18.6845 58.1743 19.7209 56.7103 19.7209H55.0836H54.5782H50.5493H50.253H46.0178H45.7215H41.4864H41.1901H36.9549H36.6586H32.4235H32.1272H27.892H27.5928H23.3576H23.0614H18.5241V19.7454H15.9359V15.2635C15.9359 12.084 14.3557 10.4453 11.8141 10.4453C10.5098 10.4453 9.4089 10.9742 8.51714 12.0351C7.64861 13.0959 7.21289 14.3952 7.21289 15.9636C7.21289 17.5289 7.62537 18.8313 8.45033 19.8677C9.27528 20.9041 10.3268 21.4085 11.6107 21.4085H14.1059C13.7167 22.9493 12.7784 23.7473 11.3115 23.7473H11.1053V25.3615C13.737 25.1933 15.294 23.891 15.7529 21.4085H18.5241H18.9133H23.0585H23.3547H27.5899H27.8891H32.1243H32.4206H36.6557H36.952H41.1872H41.4835H45.7186H46.0149H50.2501H50.5464H54.5753H55.0807H69.7324C71.9982 21.4085 73.1223 19.9869 73.1223 17.1681V10.4698H71.5014V10.4637ZM14.286 19.7148L11.6311 19.7393C10.7393 19.7393 10.0276 19.2807 9.50186 18.3666C9.06614 17.6206 8.8599 16.7524 8.8599 15.7893C8.8599 14.8722 9.11262 14.0314 9.5919 13.2824C10.1409 12.4386 10.8497 12.0045 11.7211 12.0045C12.5664 12.0045 13.2084 12.2949 13.6673 12.8483C14.0798 13.3313 14.286 13.9336 14.286 14.6306V19.7148Z" fill="white"/>
<path d="M66.9235 4.00195H65.2969V6.05029H66.9235V4.00195Z" fill="white"/>
<path d="M59.7977 4.62662C60.2102 4.62662 60.492 4.48293 60.6518 4.19249C60.6372 5.05157 60.2974 5.47958 59.6322 5.47958V5.99014C60.6953 5.92899 61.1601 5.33589 61.1601 4.09466V2.96043C61.1601 1.96989 60.5878 1.26367 59.8007 1.26367C58.9757 1.26367 58.418 1.96377 58.418 2.93903C58.4151 3.92651 59.0018 4.62662 59.7977 4.62662ZM59.7658 1.73448C60.3003 1.73448 60.6634 2.27561 60.6634 2.96043C60.6634 3.62385 60.3293 4.14969 59.8036 4.14969C59.2749 4.14969 58.9147 3.62385 58.9147 2.93291C58.9147 2.26644 59.24 1.73448 59.7658 1.73448Z" fill="white"/>
<path d="M6.11165 35.0747C5.64979 34.8607 5.03979 34.6436 4.28455 34.4235C3.66002 34.2401 3.17202 34.075 2.82635 33.9282C2.48068 33.7846 2.1902 33.5736 1.95201 33.2954C1.71672 33.0172 1.59763 32.6595 1.59763 32.2223C1.59763 31.6109 1.79515 31.1339 2.1902 30.7915C2.58525 30.4522 3.09649 30.281 3.72102 30.281C4.38912 30.281 4.92941 30.4583 5.33608 30.8099C5.74275 31.1615 5.97223 31.5711 6.02742 32.0328H7.67442C7.58728 31.0973 7.20095 30.3452 6.51251 29.7796C5.82699 29.214 4.94393 28.9297 3.86917 28.9297C3.12264 28.9297 2.46035 29.0673 1.8852 29.3455C1.31006 29.6237 0.859815 30.015 0.543194 30.5256C0.223668 31.0331 0.0668103 31.617 0.0668103 32.2773C0.0668103 33.0294 0.229478 33.6256 0.551908 34.0719C0.874339 34.5183 1.26648 34.8424 1.72253 35.0502C2.17858 35.2581 2.78568 35.466 3.54093 35.6739C4.15674 35.8482 4.64474 36.0102 5.00784 36.16C5.37094 36.3098 5.67303 36.5299 5.91413 36.8173C6.15523 37.1077 6.27723 37.4807 6.27723 37.9454C6.27723 38.5355 6.07099 39.0185 5.65851 39.3915C5.24603 39.7675 4.6825 39.954 3.97083 39.954C3.2243 39.954 2.65497 39.7614 2.26573 39.3732C1.87649 38.9849 1.65282 38.508 1.59763 37.9424H0C0.0116191 38.6027 0.185906 39.1805 0.525765 39.685C0.865624 40.1864 1.3362 40.5808 1.93458 40.8651C2.53297 41.1494 3.20978 41.29 3.96793 41.29C4.75803 41.29 5.44356 41.128 6.02742 40.8039C6.61128 40.4799 7.0499 40.058 7.34618 39.5382C7.64247 39.0185 7.79062 38.4652 7.79062 37.8751C7.79062 37.1108 7.62504 36.5085 7.2968 36.0622C6.96856 35.6189 6.57351 35.2887 6.11165 35.0747Z" fill="white"/>
<path d="M23.2378 31.9554C22.6888 31.6497 22.073 31.4969 21.3932 31.4969C20.7455 31.4969 20.1616 31.6314 19.6387 31.8943C19.1159 32.1603 18.7092 32.5363 18.4129 33.0224V28.3418H16.9141V41.1699H18.4129V35.9176C18.4129 34.924 18.6453 34.1658 19.113 33.6461C19.5806 33.1264 20.2081 32.8665 20.9982 32.8665C21.7767 32.8665 22.3925 33.1172 22.8427 33.6216C23.293 34.1261 23.5166 34.8506 23.5166 35.7984V41.173H24.9981V35.5752C24.9981 34.6978 24.8412 33.9518 24.5275 33.3404C24.2196 32.7197 23.7868 32.2612 23.2378 31.9554Z" fill="white"/>
<path d="M40.8781 36.8866C40.8781 37.8802 40.6486 38.6384 40.1868 39.1582C39.7249 39.6779 39.0946 39.9378 38.2928 39.9378C37.5144 39.9378 36.8986 39.6871 36.4483 39.1826C35.9981 38.6812 35.7744 37.9597 35.7744 37.0242V31.668H34.293V37.2321C34.293 38.1095 34.4556 38.8555 34.7781 39.4669C35.1005 40.0784 35.5449 40.54 36.1026 40.8457C36.6633 41.1515 37.2936 41.3043 37.9966 41.3043C38.6124 41.3043 39.173 41.1698 39.6842 40.8977C40.1955 40.6256 40.5934 40.2465 40.8781 39.7635V41.1668H42.377V31.668H40.8781V36.8866Z" fill="white"/>
<path d="M53.3289 33.2123V31.6684H51.8301V41.1672H53.3289V36.0005C53.3289 34.0836 54.1684 33.1236 55.8474 33.1236H56.2424V31.4941C55.5395 31.4941 54.944 31.6439 54.456 31.9436C53.968 32.2462 53.5933 32.6681 53.3289 33.2123Z" fill="white"/>
<path d="M73.1258 36.0547C73.1258 35.1865 72.9457 34.41 72.5913 33.7221C72.234 33.0342 71.7257 32.4931 71.0692 32.1018C70.4098 31.7104 69.6517 31.5117 68.7977 31.5117C67.9204 31.5117 67.142 31.7104 66.468 32.1109C65.7941 32.5084 65.2684 33.0801 64.8966 33.8199C64.5218 34.5598 64.3359 35.4188 64.3359 36.4033C64.3359 37.3846 64.5277 38.2498 64.9111 38.9958C65.2945 39.7418 65.8261 40.3165 66.5 40.7201C67.1739 41.1236 67.9408 41.3254 68.7977 41.3254C69.8724 41.3254 70.7729 41.0411 71.4991 40.4663C72.2253 39.8946 72.7075 39.1517 72.9486 38.2376H71.3336C71.1593 38.7696 70.8543 39.1945 70.4185 39.5125C69.9857 39.8304 69.4425 39.9894 68.7948 39.9894C68.0047 39.9894 67.3308 39.7265 66.776 39.2006C66.2211 38.6748 65.9161 37.9441 65.8609 37.0086H73.0735C73.1084 36.6723 73.1258 36.3544 73.1258 36.0547ZM65.8784 35.7246C65.9539 34.8227 66.2589 34.1195 66.7934 33.609C67.325 33.1015 67.9698 32.8447 68.728 32.8447C69.2537 32.8447 69.7359 32.9578 70.1687 33.184C70.6015 33.4103 70.9443 33.7374 71.197 34.1715C71.4497 34.6056 71.5776 35.1223 71.5776 35.7215H65.8784V35.7246Z" fill="white"/>
<path d="M101.321 35.375C101.138 35.2618 100.972 35.1212 100.827 34.9561C101.097 35.3016 101.365 35.647 101.635 35.9925C101.571 35.9069 101.504 35.8213 101.44 35.7357C102.953 37.7932 104.467 39.8507 105.983 41.9052C103.932 38.3313 108.362 35.7326 110.872 34.4975C114.012 32.9536 117.402 32.064 120.798 31.4159C127.696 30.0982 134.891 29.8016 141.471 27.041C143.527 26.1788 149.674 23.6964 147.565 20.471C146.54 18.9057 145.352 17.4321 144.236 15.9402C143.516 14.9772 142.804 13.5372 141.741 12.9349C140.233 12.0789 137.814 12.51 136.181 12.5803C127.386 12.9533 118.683 15.0108 109.986 16.3071C105.179 17.0225 100.357 17.6645 95.5318 18.227C93.0365 18.5174 90.5413 18.7895 88.0432 19.0402C86.4049 19.2053 83.8342 19.9604 82.4777 18.6122C84.2322 20.9693 85.9866 23.3264 87.7411 25.6805C85.8588 22.9535 91.7672 20.3762 93.3474 19.5569C96.2173 18.068 99.2383 16.9491 102.349 16.1664C102.117 16.2245 99.9557 12.8677 99.7088 12.5345C99.0785 11.6845 98.4452 10.8377 97.8062 9.9939C97.7074 9.8655 97.1032 8.93305 96.9987 8.9575C94.3844 9.61481 91.8311 10.5075 89.3765 11.6662C88.2495 12.1982 87.1457 12.779 86.068 13.4149C84.9496 14.0722 83.5641 14.754 82.7246 15.8057C82.0391 16.6648 81.8938 17.6736 82.4748 18.6183C83.9243 20.9724 85.7543 23.1705 87.4419 25.3381C88.9728 27.3008 91.7759 26.4081 93.8731 26.1941C105.649 25.0018 117.332 23.2347 129.009 21.2781C132.283 20.7309 135.565 20.2264 138.871 19.9513C140.48 19.8168 142.092 19.7373 143.705 19.7312C144.997 19.7281 146.548 19.563 147.588 20.523C146.238 18.7253 144.887 16.9246 143.533 15.127C143.597 15.2156 143.664 15.3043 143.728 15.3899C143.295 14.7876 142.865 14.1854 142.432 13.58C143.341 15.6192 141.299 16.998 139.873 17.8938C138.296 18.8843 136.611 19.6792 134.877 20.3181C131.353 21.6205 127.65 22.2809 123.967 22.8495C116.803 23.9562 108.624 24.5371 102.497 29.0587C100.981 30.1777 99.5897 32.0548 100.342 34.1031C100.531 34.6198 100.874 35.0478 101.187 35.482C101.992 36.5978 102.811 37.6984 103.63 38.8021C104.539 40.025 105.437 41.6759 106.672 42.5747C106.445 42.4096 106.024 41.6545 105.913 41.4986C105.292 40.6425 104.664 39.7926 104.031 38.9427C103.401 38.0928 102.768 37.246 102.129 36.4022C101.89 36.0995 101.632 35.6012 101.321 35.375Z" fill="white"/>
<path d="M132.886 0.569118C130.385 -2.21295 128.392 6.19441 125.99 4.58019C126.202 4.72388 126.658 5.53099 126.748 5.65633C127.37 6.51236 127.997 7.36226 128.631 8.21217C129.261 9.06208 129.894 9.90893 130.533 10.7527C130.763 11.0554 131.033 11.5812 131.341 11.7891C133.746 13.4033 135.73 4.98986 138.237 7.77805C136.259 5.57685 134.873 2.77949 132.886 0.569118Z" fill="white"/>
<path d="M121.398 0.569118C118.897 -2.21295 116.904 6.19441 114.502 4.58019C114.714 4.72388 115.17 5.53099 115.26 5.65633C115.882 6.51236 116.509 7.36226 117.142 8.21217C117.773 9.06208 118.406 9.90893 119.045 10.7527C119.274 11.0554 119.545 11.5812 119.853 11.7891C122.258 13.4033 124.242 4.98986 126.748 7.77805C124.773 5.57685 123.385 2.77949 121.398 0.569118Z" fill="white"/>
<path d="M110.029 0.569118C107.528 -2.21295 105.535 6.19441 103.133 4.58019C103.345 4.72388 103.801 5.53099 103.891 5.65633C104.513 6.51236 105.14 7.36226 105.773 8.21217C106.404 9.06208 107.037 9.90893 107.676 10.7527C107.905 11.0554 108.176 11.5812 108.483 11.7891C110.889 13.4033 112.873 4.98986 115.379 7.77805C113.401 5.57685 112.013 2.77949 110.029 0.569118Z" fill="white"/>
</svg>
