<svg width="18" height="17" viewBox="0 0 18 17" fill="none" xmlns="http://www.w3.org/2000/svg">
<path fill-rule="evenodd" clip-rule="evenodd" d="M9.9211 16.8327H8.0776C5.20549 16.8327 3.76942 16.8327 2.7902 15.9895C1.81098 15.1463 1.60789 13.7349 1.20171 10.912L0.969405 9.2976C0.653205 7.10002 0.495105 6.00126 0.945488 5.06181C1.39587 4.12235 2.35451 3.5513 4.27177 2.40919L5.42581 1.72174C7.16688 0.684591 8.03743 0.166016 8.99935 0.166016C9.96126 0.166016 10.8318 0.684591 12.5728 1.72174L13.7269 2.40919C15.6442 3.5513 16.6028 4.12235 17.0532 5.06181C17.5036 6.00126 17.3455 7.10002 17.0293 9.2976L16.797 10.912C16.3908 13.7349 16.1877 15.1463 15.2085 15.9895C14.2293 16.8327 12.7932 16.8327 9.9211 16.8327ZM5.99732 11.4603C6.20287 11.183 6.59431 11.1248 6.8716 11.3304C7.4786 11.7803 8.21118 12.0408 8.99943 12.0408C9.78768 12.0408 10.5203 11.7803 11.1273 11.3304C11.4046 11.1248 11.796 11.183 12.0015 11.4603C12.2071 11.7376 12.1489 12.1291 11.8716 12.3346C11.0613 12.9353 10.0703 13.2908 8.99943 13.2908C7.9286 13.2908 6.9376 12.9353 6.12725 12.3346C5.84995 12.1291 5.79178 11.7376 5.99732 11.4603Z" fill="#005DBA"/>
</svg>
