<svg width="292" height="84" viewBox="0 0 292 84" fill="none" xmlns="http://www.w3.org/2000/svg">
<path d="M6.32708 38.7971C6.32708 44.4067 4.20659 46.8315 0 46.8315V50.0163C6.64229 49.6363 9.48489 45.9267 9.48489 38.1819V20.6414H6.32135V38.7971H6.32708Z" fill="white"/>
<path d="M135.064 13.1741H131.854V17.2154H135.064V13.1741Z" fill="white"/>
<path d="M129.143 13.1741H125.934V17.2154H129.143V13.1741Z" fill="white"/>
<path d="M141.07 20.6414V32.3854C141.07 37.4219 139.941 38.8997 136.554 38.8997H131.132C131.717 37.6149 131.992 35.9019 131.992 33.8632V20.6474H128.828V32.3914C128.828 37.428 127.883 38.9058 124.988 38.9058H119.068V38.7127C119.567 37.428 119.836 35.8114 119.836 33.8632V20.6474H116.673V32.8197C116.358 36.861 114.776 38.9058 111.887 38.9058H108.678H107.681H99.7318H99.1472H90.7913H90.2067H81.8509H81.2663H72.9104H72.3259H63.97H63.3854H55.0296H54.4393H46.0834H45.4988H36.5469V38.954H31.4406V30.1114C31.4406 23.8383 28.3229 20.6052 23.3082 20.6052C20.735 20.6052 18.5629 21.6487 16.8035 23.7418C15.0899 25.8348 14.2302 28.3983 14.2302 31.4927C14.2302 34.5809 15.044 37.1505 16.6717 39.1953C18.2993 41.2401 20.3739 42.2353 22.907 42.2353H27.83C27.062 45.2754 25.2109 46.8496 22.3167 46.8496H21.9098V50.0344C27.1022 49.7027 30.174 47.1331 31.0795 42.2353H36.5469H37.3149H45.4931H46.0777H54.4335H55.0238H63.3797H63.9643H72.3201H72.9047H81.2606H81.8451H90.201H90.7856H99.1414H99.726H107.675H108.672H137.58C142.05 42.2353 144.268 39.4305 144.268 33.8692V20.6535H141.07V20.6414ZM28.1853 38.8937L22.9472 38.9419C21.1877 38.9419 19.7836 38.0372 18.7463 36.2337C17.8866 34.7619 17.4797 33.0489 17.4797 31.1488C17.4797 29.3393 17.9783 27.6805 18.924 26.2027C20.0071 24.538 21.4055 23.6814 23.1248 23.6814C24.7925 23.6814 26.0591 24.2545 26.9646 25.3462C27.7784 26.2993 28.1853 27.4875 28.1853 28.8628V38.8937Z" fill="white"/>
<path d="M132.038 7.89624H128.828V11.9376H132.038V7.89624Z" fill="white"/>
<path d="M117.979 9.12694C118.793 9.12694 119.349 8.84345 119.664 8.27042C119.636 9.96536 118.965 10.8098 117.653 10.8098V11.8171C119.75 11.6965 120.667 10.5263 120.667 8.07741V5.8396C120.667 3.88529 119.538 2.49194 117.985 2.49194C116.358 2.49194 115.257 3.87323 115.257 5.79738C115.251 7.74565 116.409 9.12694 117.979 9.12694ZM117.916 3.42084C118.971 3.42084 119.687 4.48847 119.687 5.8396C119.687 7.1485 119.028 8.18598 117.991 8.18598C116.948 8.18598 116.237 7.1485 116.237 5.78531C116.237 4.47038 116.879 3.42084 117.916 3.42084Z" fill="white"/>
<path d="M12.0581 69.1974C11.1469 68.7752 9.94337 68.3469 8.4533 67.9126C7.22112 67.5507 6.25831 67.225 5.57631 66.9355C4.89432 66.652 4.32121 66.2358 3.85126 65.6869C3.38705 65.138 3.15208 64.4323 3.15208 63.5697C3.15208 62.3634 3.54179 61.4224 4.32121 60.7469C5.10063 60.0773 6.1093 59.7395 7.34147 59.7395C8.65961 59.7395 9.72559 60.0894 10.5279 60.783C11.3303 61.4767 11.783 62.285 11.8919 63.1958H15.1414C14.9695 61.35 14.2073 59.8662 12.849 58.7503C11.4965 57.6344 9.75425 57.0735 7.63376 57.0735C6.16088 57.0735 4.8542 57.3449 3.71945 57.8938C2.5847 58.4427 1.69639 59.2148 1.07171 60.2221C0.441291 61.2234 0.131815 62.3754 0.131815 63.6783C0.131815 65.1621 0.452754 66.3383 1.0889 67.219C1.72505 68.0996 2.49874 68.739 3.39851 69.1492C4.29829 69.5593 5.49608 69.9695 6.98615 70.3797C8.20113 70.7235 9.16395 71.0432 9.88033 71.3387C10.5967 71.6343 11.1927 72.0686 11.6684 72.6356C12.1441 73.2086 12.3848 73.9445 12.3848 74.8613C12.3848 76.0254 11.9779 76.9785 11.1641 77.7143C10.3503 78.4563 9.23845 78.8242 7.83434 78.8242C6.36146 78.8242 5.23818 78.4442 4.47022 77.6782C3.70226 76.9121 3.26097 75.9712 3.15208 74.8553H0C0.0229242 76.1581 0.366788 77.2982 1.03732 78.2934C1.70785 79.2826 2.63628 80.0607 3.81688 80.6217C4.99748 81.1826 6.33281 81.4601 7.82861 81.4601C9.38746 81.4601 10.74 81.1404 11.8919 80.5011C13.0439 79.8617 13.9093 79.0293 14.4938 78.0039C15.0784 76.9785 15.3707 75.8867 15.3707 74.7226C15.3707 73.2146 15.044 72.0263 14.3964 71.1457C13.7488 70.2711 12.9694 69.6197 12.0581 69.1974Z" fill="white"/>
<path d="M45.8484 63.0449C44.7652 62.4417 43.5502 62.1401 42.2092 62.1401C40.9311 62.1401 39.7792 62.4055 38.7476 62.9243C37.716 63.449 36.9137 64.1909 36.3291 65.15V55.9153H33.3719V81.2248H36.3291V70.8621C36.3291 68.9018 36.7876 67.4059 37.7103 66.3805C38.633 65.3551 39.8709 64.8424 41.4297 64.8424C42.9657 64.8424 44.1806 65.337 45.069 66.3322C45.9573 67.3275 46.3986 68.757 46.3986 70.6269V81.2308H49.3214V70.1866C49.3214 68.4554 49.0119 66.9837 48.393 65.7773C47.7855 64.5528 46.9316 63.6481 45.8484 63.0449Z" fill="white"/>
<path d="M80.6531 72.7743C80.6531 74.7347 80.2003 76.2306 79.2891 77.256C78.3778 78.2814 77.1342 78.7941 75.5524 78.7941C74.0165 78.7941 72.8015 78.2995 71.9132 77.3042C71.0249 76.315 70.5836 74.8915 70.5836 73.0458V62.478H67.6608V73.4559C67.6608 75.1871 67.9817 76.6588 68.6179 77.8652C69.254 79.0715 70.1308 79.9824 71.2312 80.5855C72.3373 81.1887 73.5809 81.4903 74.9679 81.4903C76.1828 81.4903 77.2889 81.2249 78.2976 80.6881C79.3063 80.1512 80.0914 79.4033 80.6531 78.4503V81.2189H83.6103V62.478H80.6531V72.7743Z" fill="white"/>
<path d="M105.216 65.5242V62.4781H102.259V81.2189H105.216V71.0252C105.216 67.2432 106.873 65.3492 110.185 65.3492H110.964V62.1343C109.578 62.1343 108.403 62.4298 107.44 63.021C106.477 63.6181 105.738 64.4505 105.216 65.5242Z" fill="white"/>
<path d="M144.273 71.1337C144.273 69.4207 143.918 67.8886 143.219 66.5314C142.514 65.1743 141.511 64.1066 140.216 63.3345C138.915 62.5625 137.419 62.1704 135.734 62.1704C134.003 62.1704 132.467 62.5625 131.138 63.3526C129.808 64.1368 128.771 65.2647 128.037 66.7244C127.298 68.1841 126.931 69.8791 126.931 71.8213C126.931 73.7575 127.31 75.4645 128.066 76.9363C128.823 78.4081 129.871 79.542 131.201 80.3382C132.531 81.1344 134.044 81.5325 135.734 81.5325C137.855 81.5325 139.631 80.9716 141.064 79.8376C142.497 78.7096 143.448 77.2439 143.924 75.4404H140.737C140.394 76.4899 139.792 77.3284 138.932 77.9557C138.078 78.583 137.006 78.8966 135.728 78.8966C134.17 78.8966 132.84 78.3779 131.745 77.3404C130.651 76.3029 130.049 74.8613 129.94 73.0156H144.17C144.239 72.3521 144.273 71.7248 144.273 71.1337ZM129.974 70.4823C130.123 68.7029 130.725 67.3155 131.78 66.3082C132.829 65.307 134.101 64.8003 135.597 64.8003C136.634 64.8003 137.585 65.0235 138.439 65.4698C139.293 65.9162 139.969 66.5616 140.468 67.4181C140.967 68.2746 141.219 69.294 141.219 70.4762H129.974V70.4823Z" fill="white"/>
<path d="M199.905 69.7949C199.544 69.5718 199.217 69.2943 198.93 68.9686C199.463 69.6502 199.991 70.3318 200.524 71.0134C200.398 70.8445 200.266 70.6756 200.14 70.5067C203.126 74.5661 206.111 78.6255 209.103 82.6789C205.057 75.6277 213.797 70.5007 218.748 68.0638C224.944 65.0177 231.632 63.2625 238.331 61.9837C251.943 59.384 266.138 58.7989 279.119 53.3522C283.177 51.6512 295.304 46.7534 291.143 40.3898C289.12 37.3016 286.776 34.3942 284.575 31.4507C283.154 29.5507 281.75 26.7097 279.652 25.5214C276.678 23.8325 271.904 24.683 268.683 24.8217C251.329 25.5576 234.159 29.617 217 32.1745C207.516 33.586 198.002 34.8526 188.483 35.9625C183.56 36.5355 178.637 37.0723 173.708 37.5669C170.476 37.8927 165.404 39.3825 162.727 36.7225C166.189 41.373 169.651 46.0236 173.112 50.6681C169.398 45.2877 181.055 40.2029 184.173 38.5863C189.835 35.6488 195.796 33.4412 201.934 31.897C201.475 32.0117 197.211 25.3887 196.724 24.7312C195.48 23.0544 194.231 21.3836 192.97 19.7188C192.775 19.4655 191.583 17.6258 191.377 17.674C186.219 18.9709 181.181 20.7322 176.339 23.0182C174.115 24.0678 171.937 25.2138 169.811 26.4684C167.605 27.7653 164.871 29.1103 163.215 31.1853C161.862 32.8802 161.575 34.8707 162.722 36.7346C165.581 41.3791 169.192 45.7159 172.522 49.9925C175.542 53.8649 181.073 52.1036 185.21 51.6814C208.444 49.329 231.494 45.8426 254.533 41.9822C260.992 40.9025 267.468 39.9073 273.99 39.3644C277.165 39.099 280.346 38.9422 283.526 38.9301C286.077 38.9241 289.137 38.5984 291.189 40.4924C288.524 36.9457 285.859 33.3929 283.188 29.8462C283.314 30.0212 283.446 30.1961 283.572 30.365C282.718 29.1767 281.87 27.9884 281.016 26.7941C282.81 30.8174 278.781 33.5377 275.967 35.305C272.855 37.2593 269.531 38.8276 266.11 40.0883C259.158 42.6578 251.851 43.9607 244.584 45.0826C230.451 47.2661 214.313 48.4122 202.226 57.3332C199.234 59.5409 196.489 63.2444 197.973 67.2857C198.346 68.3051 199.022 69.1495 199.641 70.0061C201.229 72.2077 202.845 74.3791 204.461 76.5566C206.255 78.9693 208.026 82.2265 210.461 83.9999C210.014 83.6741 209.183 82.1843 208.966 81.8767C207.739 80.1878 206.501 78.5109 205.252 76.8341C204.008 75.1572 202.759 73.4864 201.498 71.8216C201.028 71.2245 200.518 70.2413 199.905 69.7949Z" fill="white"/>
<path d="M262.184 1.12286C257.25 -4.3661 253.318 12.2214 248.578 9.0366C248.997 9.32009 249.897 10.9125 250.074 11.1598C251.301 12.8487 252.539 14.5255 253.788 16.2024C255.032 17.8792 256.281 19.5501 257.542 21.2148C257.995 21.812 258.528 22.8495 259.135 23.2596C263.88 26.4444 267.795 9.84486 272.741 15.3459C268.838 11.003 266.104 5.48386 262.184 1.12286Z" fill="white"/>
<path d="M239.518 1.12286C234.583 -4.3661 230.652 12.2214 225.912 9.0366C226.331 9.32009 227.23 10.9125 227.408 11.1598C228.634 12.8487 229.872 14.5255 231.122 16.2024C232.365 17.8792 233.615 19.5501 234.876 21.2148C235.328 21.812 235.861 22.8495 236.469 23.2596C241.214 26.4444 245.128 9.84486 250.074 15.3459C246.177 11.003 243.438 5.48386 239.518 1.12286Z" fill="white"/>
<path d="M217.086 1.12286C212.152 -4.3661 208.22 12.2214 203.481 9.0366C203.899 9.32009 204.799 10.9125 204.977 11.1598C206.203 12.8487 207.441 14.5255 208.69 16.2024C209.934 17.8792 211.183 19.5501 212.444 21.2148C212.897 21.812 213.43 22.8495 214.037 23.2596C218.783 26.4444 222.697 9.84486 227.643 15.3459C223.74 11.003 221.001 5.48386 217.086 1.12286Z" fill="white"/>
</svg>
