<svg width="17" height="17" viewBox="0 0 17 17" fill="none" xmlns="http://www.w3.org/2000/svg">
<path fill-rule="evenodd" clip-rule="evenodd" d="M8.33333 16.8327C12.9357 16.8327 16.6667 13.1017 16.6667 8.49935C16.6667 3.89697 12.9357 0.166016 8.33333 0.166016C3.73096 0.166016 0 3.89697 0 8.49935C0 9.83243 0.313017 11.0923 0.86955 12.2098C1.01745 12.5067 1.06668 12.8461 0.980933 13.1665L0.484592 15.0216C0.269125 15.8268 1.00584 16.5635 1.81112 16.3481L3.66616 15.8518C3.98661 15.766 4.32601 15.8153 4.62294 15.9631C5.74031 16.5197 7.00025 16.8327 8.33333 16.8327ZM5 9.54102C4.65483 9.54102 4.375 9.82085 4.375 10.166C4.375 10.5112 4.65483 10.791 5 10.791H9.58333C9.9285 10.791 10.2083 10.5112 10.2083 10.166C10.2083 9.82085 9.9285 9.54102 9.58333 9.54102H5ZM4.375 7.24935C4.375 6.90418 4.65483 6.62435 5 6.62435H11.6667C12.0118 6.62435 12.2917 6.90418 12.2917 7.24935C12.2917 7.59452 12.0118 7.87435 11.6667 7.87435H5C4.65483 7.87435 4.375 7.59452 4.375 7.24935Z" fill="#5A5A5A"/>
</svg>
