<svg width="172" height="50" viewBox="0 0 172 50" fill="none" xmlns="http://www.w3.org/2000/svg">
<path d="M3.72691 23.0939C3.72691 26.4329 2.47785 27.8762 0 27.8762V29.7719C3.91258 29.5458 5.58699 27.3377 5.58699 22.7276V12.2869H3.72353V23.0939H3.72691Z" fill="#65CE00"/>
<path d="M79.5581 7.8418H77.6676V10.2473H79.5581V7.8418Z" fill="#65CE00"/>
<path d="M76.0708 7.8418H74.1804V10.2473H76.0708V7.8418Z" fill="#65CE00"/>
<path d="M83.0959 12.2869V19.2774C83.0959 22.2753 82.4309 23.155 80.4358 23.155H77.2422C77.5866 22.3902 77.7486 21.3705 77.7486 20.157V12.2905H75.8852V19.281C75.8852 22.2789 75.3282 23.1586 73.6234 23.1586H70.1361V23.0437C70.4298 22.2789 70.5885 21.3167 70.5885 20.157V12.2905H68.725V19.5359C68.5394 21.9414 67.6076 23.1586 65.9062 23.1586H64.0158H63.4284H58.7461H58.4018H53.4798H53.1355H48.2135H47.8692H42.9473H42.6029H37.681H37.3366H32.4147H32.067H27.145H26.8007H21.5277V23.1873H18.5198V17.9238C18.5198 14.1898 16.6834 12.2654 13.7295 12.2654C12.2138 12.2654 10.9343 12.8865 9.89795 14.1324C8.88858 15.3782 8.3822 16.9041 8.3822 18.746C8.3822 20.5843 8.86157 22.1138 9.8203 23.3309C10.779 24.548 12.0011 25.1404 13.4932 25.1404H16.393C15.9407 26.95 14.8503 27.8871 13.1455 27.8871H12.9058V29.7828C15.9643 29.5853 17.7737 28.0558 18.3071 25.1404H21.5277H21.98H26.7973H27.1417H32.0636H32.4113H37.3333H37.6776H42.5995H42.9439H47.8658H48.2102H53.1321H53.4765H58.3984H58.7427H63.425H64.0124H81.04C83.6732 25.1404 84.9796 23.4709 84.9796 20.1606V12.2941H83.0959V12.2869ZM16.6023 23.1514L13.5168 23.1801C12.4805 23.1801 11.6534 22.6415 11.0424 21.568C10.536 20.692 10.2963 19.6723 10.2963 18.5413C10.2963 17.4642 10.59 16.4769 11.147 15.5972C11.785 14.6063 12.6087 14.0965 13.6215 14.0965C14.6038 14.0965 15.3499 14.4376 15.8833 15.0874C16.3626 15.6547 16.6023 16.362 16.6023 17.1806V23.1514Z" fill="#65CE00"/>
<path d="M77.7756 4.70044H75.8851V7.10598H77.7756V4.70044Z" fill="#65CE00"/>
<path d="M69.4947 5.4328C69.9741 5.4328 70.3015 5.26405 70.4872 4.92297C70.4703 5.93186 70.0753 6.43451 69.3023 6.43451V7.0341C70.5378 6.9623 71.078 6.26577 71.078 4.80808V3.47605C71.078 2.31277 70.4129 1.4834 69.4981 1.4834C68.5393 1.4834 67.8912 2.30559 67.8912 3.45092C67.8878 4.61061 68.5697 5.4328 69.4947 5.4328ZM69.4576 2.03632C70.0787 2.03632 70.5007 2.67181 70.5007 3.47605C70.5007 4.25516 70.1125 4.8727 69.5015 4.8727C68.8871 4.8727 68.4684 4.25516 68.4684 3.44374C68.4684 2.66104 68.8465 2.03632 69.4576 2.03632Z" fill="#65CE00"/>
<path d="M7.10273 41.189C6.56598 40.9377 5.85705 40.6828 4.97934 40.4243C4.25354 40.2089 3.6864 40.015 3.28468 39.8427C2.88295 39.6739 2.54537 39.4262 2.26855 39.0995C1.99511 38.7727 1.8567 38.3527 1.8567 37.8392C1.8567 37.1212 2.08626 36.5611 2.54537 36.1589C3.00448 35.7604 3.59863 35.5594 4.32443 35.5594C5.10087 35.5594 5.72877 35.7676 6.20139 36.1805C6.674 36.5934 6.94069 37.0745 7.00483 37.6166H8.91893C8.81765 36.518 8.36867 35.6348 7.5686 34.9705C6.7719 34.3063 5.74565 33.9724 4.4966 33.9724C3.62901 33.9724 2.85932 34.134 2.19091 34.4607C1.5225 34.7874 0.999244 35.247 0.631279 35.8466C0.259939 36.4426 0.0776444 37.1283 0.0776444 37.9039C0.0776444 38.7871 0.266691 39.4872 0.641407 40.0114C1.01612 40.5356 1.47186 40.9162 2.00186 41.1603C2.53187 41.4045 3.23741 41.6486 4.11513 41.8928C4.8308 42.0974 5.39794 42.2877 5.81992 42.4636C6.2419 42.6396 6.59298 42.8981 6.87318 43.2356C7.15337 43.5766 7.29516 44.0147 7.29516 44.5604C7.29516 45.2533 7.05547 45.8206 6.5761 46.2586C6.09674 46.7003 5.44183 46.9193 4.61475 46.9193C3.74716 46.9193 3.0855 46.6931 2.63314 46.2371C2.18078 45.7811 1.92084 45.221 1.8567 44.5568H0C0.0135033 45.3323 0.216053 46.0109 0.611024 46.6033C1.006 47.1921 1.55288 47.6553 2.2483 47.9892C2.94372 48.3231 3.73029 48.4883 4.61138 48.4883C5.5296 48.4883 6.32629 48.298 7.00483 47.9174C7.68337 47.5368 8.19312 47.0413 8.53746 46.431C8.88179 45.8206 9.05396 45.1708 9.05396 44.4778C9.05396 43.5802 8.86154 42.8729 8.48007 42.3487C8.0986 41.8281 7.63949 41.4404 7.10273 41.189Z" fill="#005DBA"/>
<path d="M27.0066 37.527C26.3685 37.168 25.6529 36.9885 24.8629 36.9885C24.1101 36.9885 23.4316 37.1464 22.8239 37.4552C22.2163 37.7676 21.7437 38.2092 21.3993 38.7801V33.2832H19.6574V48.3484H21.3993V42.1801C21.3993 41.0133 21.6694 40.1229 22.2129 39.5125C22.7564 38.9021 23.4856 38.5969 24.4038 38.5969C25.3085 38.5969 26.0242 38.8914 26.5475 39.4838C27.0707 40.0762 27.3307 40.9271 27.3307 42.0401V48.352H29.0523V41.778C29.0523 40.7476 28.87 39.8715 28.5054 39.1535C28.1476 38.4246 27.6446 37.8861 27.0066 37.527Z" fill="#005DBA"/>
<path d="M47.508 43.3182C47.508 44.4851 47.2413 45.3755 46.7045 45.9858C46.1678 46.5962 45.4352 46.9014 44.5035 46.9014C43.5988 46.9014 42.8831 46.607 42.3598 46.0146C41.8366 45.4258 41.5767 44.5784 41.5767 43.4798V37.1895H39.855V43.7239C39.855 44.7544 40.044 45.6304 40.4187 46.3485C40.7935 47.0665 41.31 47.6087 41.9581 47.9677C42.6097 48.3268 43.3422 48.5063 44.1592 48.5063C44.8748 48.5063 45.5264 48.3483 46.1205 48.0288C46.7147 47.7092 47.1771 47.264 47.508 46.6967V48.3447H49.2499V37.1895H47.508V43.3182Z" fill="#005DBA"/>
<path d="M61.9767 39.0026V37.1895H60.2348V48.3448H61.9767V42.2771C61.9767 40.0259 62.9523 38.8985 64.9036 38.8985H65.3627V36.9849C64.5457 36.9849 63.8537 37.1608 63.2865 37.5126C62.7194 37.8681 62.2839 38.3636 61.9767 39.0026Z" fill="#005DBA"/>
<path d="M84.983 42.3416C84.983 41.322 84.7737 40.41 84.3619 39.6022C83.9466 38.7943 83.3559 38.1589 82.5929 37.6993C81.8266 37.2397 80.9455 37.0063 79.953 37.0063C78.9335 37.0063 78.0288 37.2397 77.2456 37.7101C76.4624 38.1768 75.8514 38.8482 75.4193 39.7171C74.9838 40.5859 74.7678 41.5948 74.7678 42.7509C74.7678 43.9034 74.9906 44.9195 75.4362 45.7956C75.8818 46.6716 76.4996 47.3466 77.2827 47.8205C78.0659 48.2945 78.9572 48.5314 79.953 48.5314C81.2021 48.5314 82.2486 48.1975 83.0925 47.5225C83.9365 46.8511 84.4969 45.9787 84.7771 44.9052H82.9001C82.6976 45.5299 82.3431 46.0289 81.8367 46.4023C81.3337 46.7757 80.7025 46.9624 79.9496 46.9624C79.0314 46.9624 78.2482 46.6537 77.6035 46.0361C76.9587 45.4186 76.6042 44.5605 76.5401 43.4618H84.9222C84.9627 43.0669 84.983 42.6935 84.983 42.3416ZM76.5603 41.9539C76.6481 40.8947 77.0026 40.0689 77.6237 39.4693C78.2415 38.8733 78.9909 38.5717 79.872 38.5717C80.483 38.5717 81.0434 38.7046 81.5464 38.9703C82.0494 39.236 82.4478 39.6201 82.7415 40.13C83.0352 40.6398 83.1837 41.2466 83.1837 41.9503H76.5603V41.9539Z" fill="#005DBA"/>
<path d="M117.752 41.5447C117.539 41.4118 117.347 41.2467 117.178 41.0528C117.492 41.4585 117.803 41.8642 118.117 42.2699C118.042 42.1694 117.965 42.0689 117.89 41.9683C119.649 44.3847 121.408 46.801 123.17 49.2137C120.787 45.0166 125.935 41.9648 128.852 40.5142C132.501 38.7011 136.441 37.6563 140.387 36.8952C148.405 35.3477 156.766 34.9994 164.413 31.7573C166.803 30.7449 173.946 27.8295 171.495 24.0417C170.304 22.2034 168.923 20.4728 167.627 18.7207C166.789 17.5898 165.962 15.8987 164.727 15.1914C162.975 14.1861 160.163 14.6923 158.265 14.7749C148.043 15.2129 137.929 17.6293 127.822 19.1516C122.235 19.9917 116.631 20.7457 111.024 21.4063C108.124 21.7474 105.224 22.0669 102.321 22.3614C100.417 22.5552 97.4296 23.4421 95.8531 21.8587C97.8921 24.6269 99.9311 27.3951 101.97 30.1596C99.7826 26.957 106.649 23.9303 108.485 22.9681C111.821 21.2196 115.332 19.9055 118.947 18.9864C118.677 19.0546 116.165 15.1124 115.879 14.7211C115.146 13.7229 114.41 12.7284 113.667 11.7375C113.553 11.5867 112.85 10.4916 112.729 10.5203C109.691 11.2923 106.723 12.3406 103.871 13.7014C102.561 14.3261 101.278 15.0083 100.026 15.7551C98.7259 16.527 97.1157 17.3277 96.1401 18.5628C95.3434 19.5716 95.1746 20.7565 95.8497 21.8659C97.5343 24.6305 99.661 27.2119 101.622 29.7575C103.401 32.0625 106.659 31.0141 109.096 30.7628C122.782 29.3626 136.36 27.2873 149.93 24.9895C153.735 24.3468 157.55 23.7544 161.391 23.4313C163.262 23.2733 165.135 23.18 167.009 23.1728C168.511 23.1692 170.314 22.9753 171.522 24.1027C169.952 21.9916 168.383 19.8768 166.81 17.7657C166.884 17.8698 166.961 17.9739 167.036 18.0745C166.533 17.3672 166.033 16.6599 165.53 15.949C166.587 18.3437 164.214 19.963 162.556 21.015C160.723 22.1782 158.765 23.1117 156.75 23.8621C152.655 25.3916 148.351 26.1671 144.07 26.835C135.745 28.1347 126.239 28.8168 119.119 34.127C117.357 35.4411 115.74 37.6455 116.614 40.0511C116.834 40.6579 117.232 41.1605 117.597 41.6703C118.532 42.9808 119.484 44.2734 120.436 45.5695C121.492 47.0056 122.536 48.9444 123.97 50C123.707 49.8061 123.218 48.9193 123.089 48.7362C122.367 47.7309 121.638 46.7328 120.902 45.7346C120.169 44.7365 119.433 43.742 118.691 42.751C118.414 42.3956 118.113 41.8104 117.752 41.5447Z" fill="#005DBA"/>
<path d="M154.437 0.668366C151.531 -2.59887 149.215 7.27464 146.423 5.37893C146.669 5.54768 147.199 6.49553 147.304 6.64274C148.026 7.64804 148.756 8.64616 149.492 9.64428C150.224 10.6424 150.96 11.6369 151.703 12.6279C151.969 12.9833 152.283 13.6009 152.641 13.845C155.436 15.7407 157.742 5.86004 160.655 9.13445C158.356 6.54939 156.746 3.2642 154.437 0.668366Z" fill="#65CE00"/>
<path d="M141.086 0.668366C138.179 -2.59887 135.863 7.27464 133.072 5.37893C133.318 5.54768 133.848 6.49553 133.953 6.64274C134.675 7.64804 135.404 8.64616 136.14 9.64428C136.873 10.6424 137.609 11.6369 138.351 12.6279C138.618 12.9833 138.932 13.6009 139.29 13.845C142.085 15.7407 144.391 5.86004 147.304 9.13445C145.008 6.54939 143.395 3.2642 141.086 0.668366Z" fill="#65CE00"/>
<path d="M127.873 0.668366C124.966 -2.59887 122.65 7.27464 119.859 5.37893C120.105 5.54768 120.635 6.49553 120.74 6.64274C121.462 7.64804 122.191 8.64616 122.927 9.64428C123.66 10.6424 124.396 11.6369 125.138 12.6279C125.405 12.9833 125.719 13.6009 126.077 13.845C128.872 15.7407 131.178 5.86004 134.091 9.13445C131.792 6.54939 130.178 3.2642 127.873 0.668366Z" fill="#65CE00"/>
</svg>
