<svg width="24" height="25" viewBox="0 0 24 25" fill="none" xmlns="http://www.w3.org/2000/svg">
<path d="M18.8086 6.75047H20.1686C19.9786 6.48047 19.7786 6.23047 19.5686 5.98047L18.8086 6.75047Z"/>
<path d="M18.52 4.92031C18.27 4.71031 18.02 4.51031 17.75 4.32031V5.68031L18.52 4.92031Z"/>
<path d="M19.5795 5.98141L22.5295 3.03141C22.8195 2.74141 22.8195 2.26141 22.5295 1.97141C22.2395 1.68141 21.7595 1.68141 21.4695 1.97141L18.5195 4.92141C18.8995 5.25141 19.2495 5.61141 19.5795 5.98141Z" fill="#5A5A5A"/>
<path d="M17.7517 3.5C17.7517 3.09 17.4117 2.75 17.0017 2.75C16.6017 2.75 16.2817 3.07 16.2617 3.46C16.7817 3.71 17.2817 3.99 17.7517 4.32V3.5Z" fill="#5A5A5A"/>
<path d="M21.7519 7.5C21.7519 7.09 21.4119 6.75 21.0019 6.75H20.1719C20.5019 7.22 20.7919 7.72 21.0319 8.24C21.4319 8.22 21.7519 7.9 21.7519 7.5Z" fill="#5A5A5A"/>
<path d="M12.75 15.2508H13.05C13.44 15.2508 13.75 14.9008 13.75 14.4708C13.75 13.9308 13.6 13.8508 13.26 13.7308L12.75 13.5508V15.2508Z" fill="#5A5A5A"/>
<path d="M21.04 8.24C21.03 8.24 21.02 8.25 21 8.25H17C16.9 8.25 16.81 8.23 16.71 8.19C16.53 8.11 16.38 7.97 16.3 7.78C16.27 7.69 16.25 7.6 16.25 7.5V3.5C16.25 3.49 16.26 3.48 16.26 3.46C14.96 2.85 13.52 2.5 12 2.5C6.48 2.5 2 6.98 2 12.5C2 18.02 6.48 22.5 12 22.5C17.52 22.5 22 18.02 22 12.5C22 10.98 21.65 9.54 21.04 8.24ZM13.75 12.32C14.39 12.54 15.25 13.01 15.25 14.48C15.25 15.73 14.26 16.76 13.05 16.76H12.75V17.01C12.75 17.42 12.41 17.76 12 17.76C11.59 17.76 11.25 17.42 11.25 17.01V16.76H11.17C9.84 16.76 8.75 15.64 8.75 14.26C8.75 13.84 9.09 13.5 9.5 13.5C9.91 13.5 10.25 13.84 10.25 14.25C10.25 14.8 10.66 15.25 11.17 15.25H11.25V13.03L10.25 12.68C9.61 12.46 8.75 11.99 8.75 10.52C8.75 9.27 9.74 8.24 10.95 8.24H11.25V8C11.25 7.59 11.59 7.25 12 7.25C12.41 7.25 12.75 7.59 12.75 8V8.25H12.83C14.16 8.25 15.25 9.37 15.25 10.75C15.25 11.16 14.91 11.5 14.5 11.5C14.09 11.5 13.75 11.16 13.75 10.75C13.75 10.2 13.34 9.75 12.83 9.75H12.75V11.97L13.75 12.32Z" fill="#5A5A5A"/>
<path d="M10.25 10.53C10.25 11.07 10.4 11.15 10.74 11.27L11.25 11.45V9.75H10.95C10.57 9.75 10.25 10.1 10.25 10.53Z"/>
</svg>
