<svg width="12" height="12" viewBox="0 0 12 12" fill="none" xmlns="http://www.w3.org/2000/svg">
<g clip-path="url(#clip0_375_3221)">
<path d="M8.22516 0.528076H6.45087V7.69931C6.45087 8.55377 5.76848 9.25564 4.91925 9.25564C4.07002 9.25564 3.38761 8.55377 3.38761 7.69931C3.38761 6.86014 4.05486 6.17351 4.87376 6.14301V4.34258C3.06915 4.37308 1.61334 5.85311 1.61334 7.69931C1.61334 9.56081 3.09948 11.0561 4.93442 11.0561C6.76933 11.0561 8.25547 9.54554 8.25547 7.69931V4.02214C8.92273 4.51041 9.74161 4.80031 10.606 4.81557V3.01513C9.27153 2.96935 8.22516 1.87078 8.22516 0.528076Z" fill="#000"/>
</g>
<defs>
<clipPath id="clip0_375_3221">
<rect width="10.528" height="10.528" fill="white" transform="translate(0.736023 0.528076)"/>
</clipPath>
</defs>
</svg>
