<svg width="400" height="69" viewBox="0 0 400 69" fill="none" xmlns="http://www.w3.org/2000/svg">
<path d="M396.874 42.3017L395.557 41.584L396.874 42.3017ZM147.059 65.8646L147.113 64.3656L147.059 65.8646ZM242.815 3.54834C243.643 3.55357 244.319 2.88625 244.324 2.05784C244.329 1.22943 243.662 0.553628 242.834 0.548397L242.815 3.54834ZM133.287 15.8166C164.363 13.4948 234.904 11.8999 295.321 15.178C325.545 16.818 353.138 19.6731 371.976 24.2364C381.43 26.5269 388.486 29.2047 392.579 32.2467C394.612 33.7579 395.785 35.2641 396.254 36.7303C396.706 38.1449 396.569 39.7273 395.557 41.584L398.191 43.0194C399.52 40.5808 399.857 38.1498 399.111 35.8168C398.382 33.5355 396.684 31.5599 394.368 29.8388C389.763 26.4163 382.205 23.6278 372.682 21.3208C353.563 16.6891 325.739 13.8241 295.483 12.1824C234.94 8.89743 164.27 10.4933 133.064 12.8249L133.287 15.8166ZM395.557 41.584C395.32 42.0193 394.821 42.5908 393.925 43.2685C393.042 43.9365 391.846 44.6528 390.313 45.403C387.247 46.9036 382.956 48.4804 377.41 50.0623C366.327 53.2239 350.397 56.3605 329.611 58.9722C288.047 64.1944 227.192 67.3023 147.113 64.3656L147.004 67.3636C227.205 70.3048 288.226 67.1955 329.984 61.9488C350.859 59.326 366.952 56.1653 378.233 52.9472C383.87 51.3392 388.347 49.7055 391.632 48.0976C393.275 47.2935 394.651 46.4811 395.735 45.6611C396.806 44.8509 397.67 43.9751 398.191 43.0194L395.557 41.584ZM147.113 64.3656C97.0772 62.5306 58.7086 57.5075 34.1549 51.0665C21.8462 47.8377 13.1623 44.2905 8.20941 40.7104C5.73115 38.9191 4.33909 37.2274 3.78708 35.7098C3.26947 34.2868 3.42833 32.8526 4.46104 31.293C5.53811 29.6664 7.56868 27.9171 10.768 26.1249C13.9478 24.3436 18.1757 22.5785 23.514 20.8685C34.1897 17.4488 49.1546 14.2969 68.7135 11.6444C107.822 6.34085 165.119 3.05769 242.815 3.54834L242.834 0.548397C165.063 0.0572816 107.612 3.34183 68.3104 8.67165C48.664 11.3359 33.5078 14.5171 22.5988 18.0115C17.1448 19.7586 12.7145 21.5958 9.30181 23.5076C5.90861 25.4084 3.41231 27.443 1.95971 29.6367C0.462759 31.8974 0.0891485 34.3198 0.967799 36.7353C1.81205 39.0563 3.74499 41.1851 6.45199 43.1418C11.8696 47.0578 20.9974 50.7166 33.3937 53.9684C58.2499 60.4886 96.8647 65.5248 147.004 67.3636L147.113 64.3656Z" fill="white"/>
</svg>
