<svg width="347" height="121" viewBox="0 0 347 121" fill="none" xmlns="http://www.w3.org/2000/svg">
<path d="M344.025 74.5431L342.682 74.1911L344.025 74.5431ZM127.644 116.956L127.75 115.573L127.644 116.956ZM210.574 3.47461C211.341 3.48467 211.97 2.87159 211.98 2.10527C211.99 1.33895 211.377 0.709566 210.611 0.69951L210.574 3.47461ZM115.832 25.5486C142.681 21.3797 203.713 18.5101 255.978 24.4034C282.129 27.3521 305.928 32.4793 322.141 40.6409C330.242 44.7196 336.333 49.4989 339.915 55.0311C343.463 60.5109 344.614 66.8241 342.682 74.1911L345.367 74.8951C347.49 66.7989 346.23 59.6791 342.244 53.5227C338.292 47.4188 331.725 42.3589 323.389 38.162C306.724 29.7727 282.524 24.6037 256.289 21.6455C203.783 15.725 142.503 18.5989 115.406 22.8061L115.832 25.5486ZM342.682 74.1911C342.109 76.3771 340.578 78.8781 337.924 81.5776C335.28 84.2669 331.587 87.0861 326.815 89.9148C317.271 95.5721 303.533 101.197 285.575 105.886C249.668 115.262 197.044 120.854 127.75 115.573L127.539 118.34C197.072 123.639 250.013 118.04 286.276 108.572C304.403 103.838 318.401 98.1286 328.23 92.3022C333.144 89.3892 337.045 86.4296 339.903 83.5234C342.75 80.6276 344.627 77.7169 345.367 74.8951L342.682 74.1911ZM127.75 115.573C84.4766 112.275 51.3502 103.25 30.1858 91.713C19.6004 85.9425 12.095 79.5911 7.77236 73.098C3.47479 66.6426 2.32774 60.0691 4.37056 53.658C6.43149 47.19 11.8084 40.6706 21.0072 34.5472C30.1959 28.4304 43.094 22.7808 59.9865 18.0201C93.7694 8.49944 143.319 2.59199 210.574 3.47461L210.611 0.69951C143.208 -0.185046 93.3671 5.72938 59.2337 15.3488C42.1681 20.1583 28.9763 25.9083 19.4693 32.2369C9.97239 38.5588 4.04748 45.5304 1.72621 52.8154C-0.613176 60.1573 0.777157 67.5986 5.46214 74.636C10.1221 81.6358 18.0444 88.2552 28.8575 94.1498C50.4901 105.943 84.0438 115.025 127.539 118.34L127.75 115.573Z" fill="#65CE00"/>
</svg>
