<svg width="755" height="47" viewBox="0 0 755 47" fill="none" xmlns="http://www.w3.org/2000/svg">
<path d="M69.1896 47C70.6578 47 74.2059 46.4855 76.2859 41.5116L83.2599 25.0465C84.2387 22.7025 87.7257 20.53 90.3563 20.53L127.062 20.6444C129.57 20.6444 756 16.3566 756 13.9554C756 11.6114 129.631 12.0688 127.062 12.0688L90.3563 11.9545H90.295C83.8716 11.9545 77.02 16.2994 74.6342 21.9021L69.0672 35.0513L56.465 5.20832C54.5686 0.749018 51.2039 0.120162 49.7969 0.00582116C48.3898 -0.0513494 44.964 0.234437 42.5781 4.46506L36.2159 15.7277C35.1148 17.6715 31.8113 19.5581 29.4254 19.5581H4.5882C2.08002 19.5581 0 21.5019 0 23.8459C0 26.1899 2.08002 28.1337 4.5882 28.1337H29.4254C35.2371 28.1337 41.5994 24.532 44.2911 19.7297L49.0628 11.2684L61.9097 41.5116C64.1732 46.4283 67.7825 47 69.1896 47Z" fill="url(#paint0_linear_1350_5700)"/>
<defs>
<linearGradient id="paint0_linear_1350_5700" x1="131.65" y1="16.8187" x2="-1.18593" y2="22.6642" gradientUnits="userSpaceOnUse">
<stop stop-color="white"/>
<stop offset="1" stop-color="#005DBA"/>
</linearGradient>
</defs>
</svg>
