<svg width="74" height="64" viewBox="0 0 74 64" fill="none" xmlns="http://www.w3.org/2000/svg">
<path d="M29.1495 49.9439C29.1495 53.9315 27.7539 57.271 24.9626 59.9626C22.1714 62.6542 18.6823 64 14.4953 64C10.5078 64 7.11839 62.4548 4.32711 59.3645C1.53584 56.2741 0.140198 52.3863 0.140198 47.7009C0.140198 44.3115 0.887861 40.5732 2.38319 36.486C3.9782 32.3988 6.02182 28.2617 8.51403 24.0748C11.1059 19.8879 13.9969 15.7508 17.1869 11.6636C20.4766 7.47664 23.7664 3.58879 27.0561 0L31.0935 3.28972C26.6075 8.57321 22.8692 13.9065 19.8785 19.2897C16.8879 24.6729 15.0935 29.9564 14.4953 35.1402C18.4829 35.4393 21.9221 36.9346 24.8131 39.6262C27.7041 42.3178 29.1495 45.757 29.1495 49.9439ZM72.0654 49.9439C72.0654 53.9315 70.6698 57.271 67.8785 59.9626C65.0872 62.6542 61.5981 64 57.4112 64C53.4237 64 50.0343 62.4548 47.243 59.3645C44.4517 56.2741 43.0561 52.3863 43.0561 47.7009C43.0561 44.3115 43.8038 40.5732 45.2991 36.486C46.8941 32.3988 48.9377 28.2617 51.4299 24.0748C54.0218 19.8879 56.9128 15.7508 60.1028 11.6636C63.3925 7.47664 66.6823 3.58879 69.972 0L73.8598 3.28972C69.3738 8.57321 65.6355 13.9065 62.6449 19.2897C59.7539 24.6729 58.0094 29.9564 57.4112 35.1402C61.3988 35.4393 64.838 36.9346 67.729 39.6262C70.6199 42.3178 72.0654 45.757 72.0654 49.9439Z" fill="#005DBA"/>
</svg>
