<svg width="26" height="26" viewBox="0 0 26 26" fill="none" xmlns="http://www.w3.org/2000/svg">
<g clip-path="url(#clip0_1711_544)">
<path fill-rule="evenodd" clip-rule="evenodd" d="M18.3097 13.715L13.7142 18.3138C13.5192 18.5088 13.2527 18.5657 13 18.5169C12.7473 18.5657 12.4808 18.5088 12.2858 18.3138L7.69031 13.715C7.37262 13.3981 7.37262 12.8862 7.69031 12.5612C8.00718 12.2443 8.5215 12.2443 8.83919 12.5612L12.1875 15.9168V7.3125C12.1875 6.86562 12.5515 6.5 13 6.5C13.4493 6.5 13.8125 6.86562 13.8125 7.3125V15.9168L17.1608 12.5612C17.4785 12.2443 17.9936 12.2443 18.3097 12.5612C18.6274 12.8862 18.6274 13.3981 18.3097 13.715ZM13 0C5.81994 0 0 5.8175 0 13C0 20.1825 5.81994 26 13 26C20.1801 26 26 20.1825 26 13C26 5.8175 20.1801 0 13 0Z" fill="black"/>
</g>
<defs>
<clipPath id="clip0_1711_544">
<rect width="26" height="26" fill="white"/>
</clipPath>
</defs>
</svg>
