<svg width="100" height="20" viewBox="0 0 100 20" fill="none" xmlns="http://www.w3.org/2000/svg">
<path d="M8.57342 4.39058C9.02244 3.00861 10.9776 3.00861 11.4266 4.39058L11.9084 5.87336C12.1092 6.49139 12.6851 6.90983 13.335 6.90983H14.894C16.3471 6.90983 16.9513 8.76925 15.7757 9.62335L14.5144 10.5398C13.9887 10.9217 13.7687 11.5988 13.9695 12.2168L14.4513 13.6996C14.9003 15.0816 13.3186 16.2307 12.143 15.3766L10.8817 14.4602C10.3559 14.0783 9.64405 14.0783 9.11832 14.4602L7.85699 15.3766C6.68142 16.2307 5.0997 15.0816 5.54873 13.6996L6.03052 12.2168C6.23133 11.5988 6.01134 10.9217 5.48561 10.5398L4.22428 9.62335C3.04871 8.76925 3.65287 6.90983 5.10596 6.90983H6.66505C7.31489 6.90983 7.89082 6.49139 8.09163 5.87336L8.57342 4.39058Z" fill="#E4A200"/>
<path d="M28.5734 4.39058C29.0224 3.00861 30.9776 3.00861 31.4266 4.39058L31.9084 5.87336C32.1092 6.49139 32.6851 6.90983 33.335 6.90983H34.894C36.3471 6.90983 36.9513 8.76925 35.7757 9.62335L34.5144 10.5398C33.9887 10.9217 33.7687 11.5988 33.9695 12.2168L34.4513 13.6996C34.9003 15.0816 33.3186 16.2307 32.143 15.3766L30.8817 14.4602C30.3559 14.0783 29.6441 14.0783 29.1183 14.4602L27.857 15.3766C26.6814 16.2307 25.0997 15.0816 25.5487 13.6996L26.0305 12.2168C26.2313 11.5988 26.0113 10.9217 25.4856 10.5398L24.2243 9.62335C23.0487 8.76925 23.6529 6.90983 25.106 6.90983H26.665C27.3149 6.90983 27.8908 6.49139 28.0916 5.87336L28.5734 4.39058Z" fill="#E4A200"/>
<path d="M48.5734 4.39058C49.0224 3.00861 50.9776 3.00861 51.4266 4.39058L51.9084 5.87336C52.1092 6.49139 52.6851 6.90983 53.335 6.90983H54.894C56.3471 6.90983 56.9513 8.76925 55.7757 9.62335L54.5144 10.5398C53.9887 10.9217 53.7687 11.5988 53.9695 12.2168L54.4513 13.6996C54.9003 15.0816 53.3186 16.2307 52.143 15.3766L50.8817 14.4602C50.3559 14.0783 49.6441 14.0783 49.1183 14.4602L47.857 15.3766C46.6814 16.2307 45.0997 15.0816 45.5487 13.6996L46.0305 12.2168C46.2313 11.5988 46.0113 10.9217 45.4856 10.5398L44.2243 9.62335C43.0487 8.76925 43.6529 6.90983 45.106 6.90983H46.665C47.3149 6.90983 47.8908 6.49139 48.0916 5.87336L48.5734 4.39058Z" fill="#E4A200"/>
<path d="M68.5734 4.39058C69.0224 3.00861 70.9776 3.00861 71.4266 4.39058L71.9084 5.87336C72.1092 6.49139 72.6851 6.90983 73.335 6.90983H74.894C76.3471 6.90983 76.9513 8.76925 75.7757 9.62335L74.5144 10.5398C73.9887 10.9217 73.7687 11.5988 73.9695 12.2168L74.4513 13.6996C74.9003 15.0816 73.3186 16.2307 72.143 15.3766L70.8817 14.4602C70.3559 14.0783 69.6441 14.0783 69.1183 14.4602L67.857 15.3766C66.6814 16.2307 65.0997 15.0816 65.5487 13.6996L66.0305 12.2168C66.2313 11.5988 66.0113 10.9217 65.4856 10.5398L64.2243 9.62335C63.0487 8.76925 63.6529 6.90983 65.106 6.90983H66.665C67.3149 6.90983 67.8908 6.49139 68.0916 5.87336L68.5734 4.39058Z" fill="#E4A200"/>
<path d="M88.5734 4.39058C89.0224 3.00861 90.9776 3.00861 91.4266 4.39058L91.9084 5.87336C92.1092 6.49139 92.6851 6.90983 93.335 6.90983H94.894C96.3471 6.90983 96.9513 8.76925 95.7757 9.62335L94.5144 10.5398C93.9887 10.9217 93.7687 11.5988 93.9695 12.2168L94.4513 13.6996C94.9003 15.0816 93.3186 16.2307 92.143 15.3766L90.8817 14.4602C90.3559 14.0783 89.6441 14.0783 89.1183 14.4602L87.857 15.3766C86.6814 16.2307 85.0997 15.0816 85.5487 13.6996L86.0305 12.2168C86.2313 11.5988 86.0113 10.9217 85.4856 10.5398L84.2243 9.62335C83.0487 8.76925 83.6529 6.90983 85.106 6.90983H86.665C87.3149 6.90983 87.8908 6.49139 88.0916 5.87336L88.5734 4.39058Z" fill="#E4A200"/>
</svg>
