<svg width="7" height="7" viewBox="0 0 7 7" fill="none" xmlns="http://www.w3.org/2000/svg">
<path d="M3.02447 0.463526C3.17415 0.0028708 3.82585 0.00287044 3.97553 0.463526L4.39806 1.76393C4.46499 1.96994 4.65697 2.10942 4.87358 2.10942H6.24091C6.72527 2.10942 6.92666 2.72923 6.5348 3.01393L5.42861 3.81763C5.25337 3.94495 5.18004 4.17063 5.24698 4.37664L5.66951 5.67705C5.81918 6.13771 5.29194 6.52077 4.90008 6.23607L3.79389 5.43237C3.61865 5.30505 3.38135 5.30505 3.20611 5.43237L2.09992 6.23607C1.70806 6.52077 1.18082 6.13771 1.33049 5.67705L1.75302 4.37664C1.81996 4.17063 1.74663 3.94495 1.57139 3.81763L0.465196 3.01393C0.0733387 2.72923 0.274726 2.10942 0.759088 2.10942H2.12642C2.34303 2.10942 2.53501 1.96994 2.60194 1.76393L3.02447 0.463526Z" fill="url(#paint0_linear_1685_585)"/>
<defs>
<linearGradient id="paint0_linear_1685_585" x1="3.5" y1="-1" x2="3.5" y2="8" gradientUnits="userSpaceOnUse">
<stop stop-color="#F7BF36"/>
<stop offset="1" stop-color="#E4A200"/>
</linearGradient>
</defs>
</svg>
