<svg width="86" height="12" viewBox="0 0 86 12" fill="none" xmlns="http://www.w3.org/2000/svg">
<path d="M27.9613 7.12002L26.8235 9.0266L27.9613 7.12002ZM60.4052 7.12002L61.3421 5.10712L61.3132 5.09367L61.2839 5.08106L60.4052 7.12002ZM75.7581 4.87271L74.5527 3.00815L74.5229 3.02737L74.4938 3.04752L75.7581 4.87271ZM83 5.22027C84.2262 5.22027 85.2203 4.22622 85.2203 3C85.2203 1.77378 84.2262 0.779727 83 0.779727V5.22027ZM0.294327 9.22517C2.87061 10.0888 5.09679 9.71927 7.07358 9.0086C8.02603 8.66619 8.9533 8.23248 9.80693 7.83091C10.6883 7.4163 11.5105 7.02641 12.3812 6.6866C14.0769 6.0248 15.8767 5.58739 18.086 5.78005C20.318 5.97469 23.1397 6.82822 26.8235 9.0266L29.0991 5.21344C24.9967 2.76526 21.5328 1.62323 18.4717 1.35629C15.388 1.08737 12.8872 1.72238 10.7667 2.54994C9.72938 2.95481 8.76468 3.41385 7.91668 3.81277C7.04097 4.22474 6.2965 4.56918 5.5713 4.82989C4.19279 5.32548 3.04004 5.46217 1.70567 5.01488L0.294327 9.22517ZM26.8235 9.0266C30.2046 11.0443 32.9368 11.5816 35.5102 11.0001C36.7262 10.7254 37.7859 10.2259 38.7233 9.70943C39.1914 9.45157 39.6525 9.17598 40.0891 8.91388C40.5355 8.64584 40.9587 8.39051 41.3993 8.14049C43.1039 7.17324 44.9496 6.3554 47.6071 6.25852C50.3176 6.1597 54.0675 6.80626 59.5264 9.15899L61.2839 5.08106C55.4455 2.56474 51.0223 1.69052 47.4453 1.82092C43.8152 1.95326 41.2587 3.11465 39.2079 4.27839C38.7096 4.56112 38.2344 4.84802 37.8034 5.10673C37.3626 5.37138 36.9673 5.60705 36.5808 5.81999C35.8089 6.24516 35.1661 6.52539 34.5315 6.66878C33.4038 6.9236 31.8426 6.85069 29.0991 5.21344L26.8235 9.0266ZM59.4683 9.13293C62.4903 10.5396 69.7938 11.7048 77.0223 6.6979L74.4938 3.04752C68.7448 7.02965 63.148 5.9477 61.3421 5.10712L59.4683 9.13293ZM76.9635 6.73728C77.6081 6.32052 79.9949 5.22027 83 5.22027V0.779727C79.0529 0.779727 75.8392 2.17643 74.5527 3.00815L76.9635 6.73728Z" fill="#65CE00"/>
</svg>
